<?xml version="1.0" encoding="UTF-8" standalone="no"?>
<!DOCTYPE svg PUBLIC "-//W3C//DTD SVG 1.1//EN"
 "http://www.w3.org/Graphics/SVG/1.1/DTD/svg11.dtd">
<!-- Generated by graphviz version 2.43.0 (0)
 -->
<!-- Title: %3 Pages: 1 -->
<svg width="583pt" height="301pt"
 viewBox="0.00 0.00 582.72 301.22" xmlns="http://www.w3.org/2000/svg" xmlns:xlink="http://www.w3.org/1999/xlink">
<g id="graph0" class="graph" transform="scale(1 1) rotate(0) translate(4 297.22)">
<title>%3</title>
<polygon fill="white" stroke="transparent" points="-4,4 -4,-297.22 578.72,-297.22 578.72,4 -4,4"/>
<!-- A -->
<g id="node1" class="node">
<title>A</title>
<ellipse fill="none" stroke="black" cx="245.72" cy="-266.35" rx="128.89" ry="26.74"/>
<text text-anchor="middle" x="245.72" y="-270.15" font-family="Times,serif" font-size="14.00">Lógica Aristotélica</text>
<text text-anchor="middle" x="245.72" y="-255.15" font-family="Times,serif" font-size="14.00">(Binária, Determinista)</text>
</g>
<!-- B -->
<g id="node2" class="node">
<title>B</title>
<ellipse fill="none" stroke="black" cx="111.72" cy="-146.61" rx="111.95" ry="26.74"/>
<text text-anchor="middle" x="111.72" y="-150.41" font-family="Times,serif" font-size="14.00">Asno de Buridan</text>
<text text-anchor="middle" x="111.72" y="-135.41" font-family="Times,serif" font-size="14.00">(Impasse Decisório)</text>
</g>
<!-- A&#45;&gt;B -->
<g id="edge1" class="edge">
<title>A&#45;&gt;B</title>
<path fill="none" stroke="black" d="M201.43,-240.94C192.23,-235.07 182.86,-228.46 174.72,-221.48 160.95,-209.67 147.62,-194.72 136.8,-181.37"/>
<polygon fill="black" stroke="black" points="139.36,-178.97 130.4,-173.31 133.87,-183.32 139.36,-178.97"/>
<text text-anchor="middle" x="256.22" y="-210.28" font-family="Times,serif" font-size="14.00">Limite lógico</text>
<text text-anchor="middle" x="256.22" y="-195.28" font-family="Times,serif" font-size="14.00">por equilíbrio absoluto</text>
</g>
<!-- C -->
<g id="node3" class="node">
<title>C</title>
<ellipse fill="none" stroke="black" cx="380.72" cy="-146.61" rx="139.1" ry="26.74"/>
<text text-anchor="middle" x="380.72" y="-150.41" font-family="Times,serif" font-size="14.00">Computação Quântica</text>
<text text-anchor="middle" x="380.72" y="-135.41" font-family="Times,serif" font-size="14.00">(Superposição e Colapso)</text>
</g>
<!-- A&#45;&gt;C -->
<g id="edge2" class="edge">
<title>A&#45;&gt;C</title>
<path fill="none" stroke="black" d="M306.9,-242.56C317.92,-236.75 328.74,-229.75 337.72,-221.48 349.43,-210.7 358.87,-195.99 365.9,-182.53"/>
<polygon fill="black" stroke="black" points="369.08,-183.99 370.37,-173.47 362.8,-180.89 369.08,-183.99"/>
<text text-anchor="middle" x="462.72" y="-202.78" font-family="Times,serif" font-size="14.00">Violação do terceiro excluído</text>
</g>
<!-- D -->
<g id="node4" class="node">
<title>D</title>
<ellipse fill="none" stroke="black" cx="245.72" cy="-26.87" rx="156.96" ry="26.74"/>
<text text-anchor="middle" x="245.72" y="-30.67" font-family="Times,serif" font-size="14.00">Ontologia Aplicada</text>
<text text-anchor="middle" x="245.72" y="-15.67" font-family="Times,serif" font-size="14.00">(Propósito como Colapsador)</text>
</g>
<!-- B&#45;&gt;D -->
<g id="edge3" class="edge">
<title>B&#45;&gt;D</title>
<path fill="none" stroke="black" d="M129.2,-119.74C140.24,-104.6 155.46,-85.77 171.72,-71.74 177.24,-66.98 183.35,-62.44 189.61,-58.21"/>
<polygon fill="black" stroke="black" points="191.73,-61.01 198.22,-52.64 187.92,-55.13 191.73,-61.01"/>
<text text-anchor="middle" x="255.22" y="-90.54" font-family="Times,serif" font-size="14.00">Superação pelo sentido</text>
<text text-anchor="middle" x="255.22" y="-75.54" font-family="Times,serif" font-size="14.00">intencional</text>
</g>
<!-- C&#45;&gt;D -->
<g id="edge4" class="edge">
<title>C&#45;&gt;D</title>
<path fill="none" stroke="black" d="M370.76,-119.72C363.73,-104.2 353.01,-84.98 338.72,-71.74 332.61,-66.07 325.62,-61.01 318.3,-56.53"/>
<polygon fill="black" stroke="black" points="319.98,-53.46 309.57,-51.52 316.5,-59.53 319.98,-53.46"/>
<text text-anchor="middle" x="467.72" y="-83.04" font-family="Times,serif" font-size="14.00">Colapso interno por propósito</text>
</g>
</g>
</svg>
