<?xml version="1.0" encoding="UTF-8" standalone="no"?>
<!DOCTYPE svg PUBLIC "-//W3C//DTD SVG 1.1//EN"
 "http://www.w3.org/Graphics/SVG/1.1/DTD/svg11.dtd">
<!-- Generated by graphviz version 2.43.0 (0)
 -->
<!-- Title: %3 Pages: 1 -->
<svg width="537pt" height="271pt"
 viewBox="0.00 0.00 536.61 271.22" xmlns="http://www.w3.org/2000/svg" xmlns:xlink="http://www.w3.org/1999/xlink">
<g id="graph0" class="graph" transform="scale(1 1) rotate(0) translate(4 267.22)">
<title>%3</title>
<polygon fill="white" stroke="transparent" points="-4,4 -4,-267.22 532.61,-267.22 532.61,4 -4,4"/>
<!-- Aristotle -->
<g id="node1" class="node">
<title>Aristotle</title>
<ellipse fill="none" stroke="black" cx="212.61" cy="-236.35" rx="101.23" ry="26.74"/>
<text text-anchor="middle" x="212.61" y="-240.15" font-family="Times,serif" font-size="14.00">Aristotelian Logic</text>
<text text-anchor="middle" x="212.61" y="-225.15" font-family="Times,serif" font-size="14.00">&quot;A or not A&quot;</text>
</g>
<!-- Buridan -->
<g id="node2" class="node">
<title>Buridan</title>
<ellipse fill="none" stroke="black" cx="80.61" cy="-131.61" rx="80.72" ry="26.74"/>
<text text-anchor="middle" x="80.61" y="-135.41" font-family="Times,serif" font-size="14.00">Buridan&#39;s Ass</text>
<text text-anchor="middle" x="80.61" y="-120.41" font-family="Times,serif" font-size="14.00">&quot;A and not A&quot;</text>
</g>
<!-- Aristotle&#45;&gt;Buridan -->
<g id="edge1" class="edge">
<title>Aristotle&#45;&gt;Buridan</title>
<path fill="none" stroke="black" d="M153.14,-214.3C140.57,-208.17 127.98,-200.6 117.61,-191.48 109.86,-184.67 103.16,-175.84 97.67,-167.1"/>
<polygon fill="black" stroke="black" points="100.68,-165.31 92.59,-158.47 94.65,-168.86 100.68,-165.31"/>
<text text-anchor="middle" x="214.11" y="-180.28" font-family="Times,serif" font-size="14.00">Impasse no modelo binário</text>
</g>
<!-- Quantum -->
<g id="node3" class="node">
<title>Quantum</title>
<ellipse fill="none" stroke="black" cx="345.61" cy="-131.61" rx="166.75" ry="26.74"/>
<text text-anchor="middle" x="345.61" y="-135.41" font-family="Times,serif" font-size="14.00">Quantum State</text>
<text text-anchor="middle" x="345.61" y="-120.41" font-family="Times,serif" font-size="14.00">&quot;A and not A (until measured)&quot;</text>
</g>
<!-- Aristotle&#45;&gt;Quantum -->
<g id="edge2" class="edge">
<title>Aristotle&#45;&gt;Quantum</title>
<path fill="none" stroke="black" d="M273.88,-214.88C286.93,-208.7 299.96,-200.97 310.61,-191.48 318.12,-184.79 324.49,-176.09 329.65,-167.44"/>
<polygon fill="black" stroke="black" points="332.81,-168.98 334.59,-158.53 326.68,-165.58 332.81,-168.98"/>
<text text-anchor="middle" x="425.61" y="-180.28" font-family="Times,serif" font-size="14.00">Violação do terceiro excluído</text>
</g>
<!-- Ontology -->
<g id="node4" class="node">
<title>Ontology</title>
<ellipse fill="none" stroke="black" cx="212.61" cy="-26.87" rx="124.4" ry="26.74"/>
<text text-anchor="middle" x="212.61" y="-30.67" font-family="Times,serif" font-size="14.00">Ontological Model</text>
<text text-anchor="middle" x="212.61" y="-15.67" font-family="Times,serif" font-size="14.00">&quot;Collapse by Purpose&quot;</text>
</g>
<!-- Buridan&#45;&gt;Ontology -->
<g id="edge3" class="edge">
<title>Buridan&#45;&gt;Ontology</title>
<path fill="none" stroke="black" d="M103.86,-105.87C114.82,-94.83 128.36,-82.03 141.61,-71.74 147.8,-66.93 154.55,-62.19 161.35,-57.71"/>
<polygon fill="black" stroke="black" points="163.42,-60.53 169.94,-52.18 159.63,-54.65 163.42,-60.53"/>
<text text-anchor="middle" x="222.11" y="-75.54" font-family="Times,serif" font-size="14.00">Superação por sentido</text>
</g>
<!-- Quantum&#45;&gt;Ontology -->
<g id="edge4" class="edge">
<title>Quantum&#45;&gt;Ontology</title>
<path fill="none" stroke="black" d="M330.62,-104.62C323.24,-93.46 313.58,-80.92 302.61,-71.74 295.56,-65.84 287.58,-60.51 279.36,-55.76"/>
<polygon fill="black" stroke="black" points="280.83,-52.57 270.38,-50.83 277.47,-58.71 280.83,-52.57"/>
<text text-anchor="middle" x="414.61" y="-75.54" font-family="Times,serif" font-size="14.00">Colapso interno intencional</text>
</g>
</g>
</svg>
